<?xml version="1.0" encoding="utf-8"?>
<!-- Generator: Adobe Illustrator 16.0.0, SVG Export Plug-In . SVG Version: 6.00 Build 0)  -->
<!DOCTYPE svg PUBLIC "-//W3C//DTD SVG 1.1//EN" "http://www.w3.org/Graphics/SVG/1.1/DTD/svg11.dtd">
<svg version="1.1" id="Layer_1" xmlns="http://www.w3.org/2000/svg" xmlns:xlink="http://www.w3.org/1999/xlink" x="0px" y="0px"
	 width="100px" height="100px" viewBox="0 0 100 100" enable-background="new 0 0 100 100" xml:space="preserve">
<g id="XMLID_1_">
	<g>
		<path fill="#00BFB6" d="M21.562,34.429v-0.024c0.267-1.916,6.015-5.158,11.35-5.344c0.509-2.085,6.702-9.256,13.808-10.122
			c7.486-0.913,16.783,1.318,19.305,4.851c2.457,3.444,4.931,6.613,4.672,9.766c2.571,0.194,5.353,0.946,7.955,2.66
			c7.082,4.656,7.891,9.806,7.381,12.74v0.017c1.221-0.065,2.426,0.048,3.533,0.388c5.966,1.811,7.987,5.344,8.893,9.394
			c1.317,5.861-4.851,13.743-11.819,12.838l-0.194-0.049c-0.153,0.769-0.452,1.479-0.921,2.07c-2.426,3.023-6.969,4.64-11.617,1.616
			l-0.049-0.032c-4.939,6.92-16.079,9.709-25.586,1.472c-1.051,0.945-2.425,1.649-4.171,1.892
			c-5.198,0.728-8.909-2.029-10.946-5.796l-0.073,0.04c-1.617,2.725-10.809,2.522-15.465,0.404
			c-4.479-2.054-8.982-6.783-8.456-13.525L8.935,59.66c-2.328-0.3-9.2-8.085-6.467-15.958C4.625,37.46,12.855,32.861,21.562,34.429z
			"/>
	</g>
	<g>
	</g>
</g>
<g>
	<path d="M8.87,60.629c0,0-0.046-0.015-0.134-0.043c-0.095-0.033-0.204-0.056-0.406-0.137C8.103,60.339,7.787,60.187,7.501,60
		c-0.231-0.18-0.527-0.373-0.797-0.62c-0.547-0.491-1.174-1.106-1.768-1.894c-0.618-0.771-1.218-1.704-1.78-2.77
		c-0.56-1.068-1.032-2.294-1.392-3.631c-0.306-1.351-0.5-2.817-0.383-4.337c0.018-0.378,0.104-0.756,0.155-1.137l0.09-0.572
		l0.164-0.561c0.124-0.387,0.188-0.722,0.365-1.155L2.622,42.3c0.746-1.401,1.716-2.746,2.907-3.771
		c0.55-0.574,1.227-0.993,1.843-1.477c0.669-0.405,1.321-0.838,2.02-1.164c0.701-0.321,1.384-0.666,2.108-0.881
		c0.356-0.121,0.71-0.241,1.062-0.36c0.361-0.085,0.72-0.169,1.075-0.253c1.419-0.337,2.831-0.465,4.16-0.477
		c0.665-0.05,1.311,0.054,1.934,0.086c0.626,0.021,1.218,0.149,1.787,0.253c1.15,0.155,2.145,0.553,3.048,0.794
		c0.861,0.371,1.627,0.657,2.227,0.957c1.173,0.649,1.844,1.021,1.844,1.021s-0.684-0.343-1.88-0.943
		c-0.609-0.274-1.383-0.527-2.249-0.86c-0.907-0.203-1.9-0.555-3.04-0.661c-0.564-0.079-1.148-0.182-1.764-0.176
		c-0.613-0.006-1.245-0.083-1.894-0.007c-1.297,0.064-2.663,0.245-4.021,0.628c-0.339,0.094-0.682,0.189-1.027,0.286
		c-0.334,0.128-0.67,0.258-1.008,0.389c-0.688,0.234-1.328,0.593-1.984,0.926c-0.654,0.337-1.256,0.777-1.873,1.184
		c-0.562,0.483-1.185,0.9-1.675,1.458c-0.253,0.269-0.529,0.518-0.763,0.8l-0.669,0.873c-0.244,0.281-0.39,0.601-0.573,0.901
		c-0.167,0.317-0.378,0.57-0.503,0.943l-0.424,1.042c-0.095,0.262-0.172,0.663-0.259,0.982l-0.127,0.504l-0.058,0.515
		c-0.03,0.342-0.097,0.678-0.098,1.016c-0.048,1.355,0.18,2.657,0.501,3.857c0.376,1.189,0.845,2.279,1.392,3.225
		c0.549,0.943,1.125,1.767,1.703,2.428c0.558,0.683,1.125,1.186,1.587,1.571c0.231,0.196,0.45,0.317,0.631,0.453
		c0.157,0.086,0.242,0.124,0.328,0.189c0.128,0.054,0.293,0.085,0.373,0.11c0.09,0.024,0.136,0.037,0.136,0.037L8.87,60.629z"/>
</g>
<g>
	<path d="M20.808,34.106c0,0,0.046-0.127,0.131-0.366c0.035-0.111,0.201-0.391,0.356-0.628c0.182-0.294,0.339-0.4,0.542-0.625
		c0.397-0.397,0.903-0.777,1.499-1.165c0.597-0.38,1.289-0.75,2.061-1.103c0.777-0.337,1.626-0.678,2.553-0.946
		c0.918-0.292,1.918-0.495,2.956-0.661c1.046-0.123,2.136-0.226,3.251-0.124c0.559,0.01,1.107,0.141,1.679,0.226
		c0.525,0.126,1.046,0.237,1.584,0.389c1.069,0.278,2.11,0.623,3.119,1.02c1.012,0.386,1.963,0.879,2.86,1.385
		c0.874,0.548,1.706,1.105,2.399,1.75c0.716,0.615,1.307,1.291,1.809,1.938c0.49,0.657,0.896,1.291,1.191,1.886
		c0.335,0.573,0.508,1.131,0.705,1.561c0.304,0.898,0.455,1.417,0.455,1.417s-0.181-0.511-0.534-1.385
		c-0.221-0.417-0.422-0.957-0.786-1.503c-0.324-0.568-0.758-1.167-1.273-1.779c-0.527-0.603-1.136-1.223-1.863-1.778
		c-0.704-0.583-1.54-1.074-2.409-1.552c-0.895-0.437-1.833-0.858-2.833-1.174c-0.991-0.326-2.025-0.604-3.063-0.809
		c-0.51-0.114-1.053-0.198-1.581-0.293c-0.497-0.038-1.004-0.135-1.512-0.112c-1.012-0.036-2.015,0.119-2.97,0.287
		c-0.952,0.211-1.866,0.449-2.702,0.771c-0.844,0.296-1.609,0.658-2.3,1.006c-0.684,0.362-1.284,0.73-1.779,1.087
		c-0.488,0.36-0.884,0.7-1.137,0.988c-0.105,0.132-0.278,0.303-0.27,0.337c-0.03,0.079-0.081,0.039-0.118,0.171
		c-0.071,0.243-0.109,0.373-0.109,0.373L20.808,34.106z"/>
</g>
<g>
	<path d="M34.065,73.425c-0.019,0.008-0.115,0.169-0.493,0.555c-0.565,0.495-1.297,0.917-2.199,1.162
		c-0.912,0.266-2.01,0.472-3.251,0.526c-1.242,0.066-2.633,0.036-4.134-0.128c-1.5-0.168-3.114-0.456-4.78-1.003
		c-0.417-0.138-0.837-0.283-1.254-0.474l-0.315-0.134c-0.061-0.028-0.088-0.033-0.176-0.079l-0.145-0.075l-0.583-0.301
		c-0.813-0.458-1.622-0.963-2.356-1.564c-1.505-1.172-2.831-2.681-3.827-4.423c-0.995-1.744-1.57-3.757-1.692-5.777
		c-0.024-0.505-0.009-1.012-0.002-1.516c0.06-0.509,0.075-0.985,0.173-1.517c0.143-0.933,0.527-1.975,0.932-2.85
		c0.897-1.772,2.109-3.304,3.448-4.588c1.339-1.286,2.758-2.393,4.306-3.162c1.592-0.657,3.14-1.023,4.593-1.283
		c2.904-0.502,5.406-0.362,7.059,0.088c0.418,0.095,0.782,0.21,1.092,0.334c0.315,0.106,0.578,0.209,0.78,0.318
		c0.412,0.199,0.632,0.305,0.632,0.305s-0.223-0.099-0.641-0.284c-0.205-0.102-0.47-0.196-0.787-0.292
		c-0.312-0.113-0.677-0.215-1.095-0.297c-1.654-0.394-4.132-0.452-6.981,0.136c-1.415,0.297-2.962,0.723-4.45,1.394
		c-1.434,0.769-2.808,1.906-4.06,3.191c-1.259,1.286-2.373,2.802-3.159,4.486c-0.359,0.882-0.648,1.673-0.778,2.672
		c-0.065,0.425-0.071,0.928-0.111,1.387c0.01,0.47,0.01,0.941,0.047,1.408c0.175,1.866,0.758,3.684,1.719,5.248
		c0.962,1.563,2.219,2.907,3.635,3.938c0.699,0.536,1.439,0.961,2.169,1.346l0.593,0.282l0.147,0.07l0.123,0.048l0.284,0.11
		c0.371,0.156,0.758,0.275,1.142,0.389c1.538,0.451,3.071,0.678,4.481,0.789c1.413,0.108,2.713,0.093,3.842-0.003
		c1.134-0.085,2.081-0.306,2.798-0.538c0.752-0.217,1.15-0.575,1.296-0.642c0.257-0.264,0.427-0.524,0.421-0.503L34.065,73.425z"/>
</g>
<path fill="none" stroke="#000000" stroke-width="2" stroke-miterlimit="10" d="M33.083,29.348
	c-0.101-1.617,6.366-9.499,13.844-10.409c7.479-0.91,16.773,1.314,19.301,4.851c2.526,3.537,5.054,6.771,4.649,10.004"/>
<g>
	<path d="M60.669,36.118c0,0,0.031-0.142,0.218-0.324c0.179-0.185,0.484-0.413,0.901-0.65c0.834-0.475,2.114-0.999,3.72-1.383
		c1.604-0.383,3.539-0.625,5.619-0.504c2.076,0.114,4.296,0.616,6.334,1.577c1.02,0.458,1.993,1.101,2.87,1.688
		c0.447,0.312,0.892,0.658,1.328,0.985c0.407,0.358,0.832,0.689,1.211,1.06c0.769,0.731,1.468,1.499,2.046,2.302
		c0.58,0.8,1.065,1.616,1.413,2.424c0.372,0.797,0.595,1.585,0.756,2.291c0.142,0.711,0.222,1.345,0.225,1.874
		c0.02,0.526-0.009,0.945-0.039,1.229c-0.032,0.285-0.049,0.437-0.049,0.437l-1.971-0.34c0,0,0.02-0.118,0.057-0.34
		c0.037-0.221,0.08-0.553,0.088-0.98c0.023-0.427-0.015-0.951-0.097-1.549c-0.103-0.595-0.248-1.271-0.53-1.975
		c-0.259-0.712-0.643-1.452-1.121-2.198c-0.476-0.748-1.072-1.484-1.745-2.202c-0.331-0.364-0.712-0.695-1.074-1.054
		c-0.389-0.325-0.766-0.659-1.181-0.986c-0.871-0.657-1.691-1.27-2.639-1.766c-1.858-1.012-3.939-1.616-5.937-1.842
		c-1.999-0.232-3.904-0.108-5.5,0.178c-1.598,0.286-2.894,0.731-3.744,1.152c-0.425,0.211-0.739,0.418-0.926,0.59
		C60.709,35.979,60.669,36.118,60.669,36.118z"/>
</g>
<g>
	<path d="M74.716,54.712c0,0,0.057-0.191,0.216-0.522c0.195-0.316,0.527-0.758,1.05-1.216c0.504-0.479,1.197-0.963,2.013-1.481
		c0.833-0.488,1.791-1.022,2.903-1.458c1.105-0.442,2.338-0.866,3.695-1.102c1.352-0.241,2.828-0.35,4.341-0.095
		c0.377,0.091,0.748,0.131,1.141,0.269c0.355,0.124,0.713,0.248,1.072,0.373c0.726,0.207,1.437,0.59,2.161,0.956
		c0.374,0.164,0.705,0.394,1.033,0.634c0.328,0.238,0.675,0.457,0.99,0.716c0.584,0.575,1.218,1.116,1.675,1.813
		c1.002,1.318,1.671,2.869,2.075,4.414l0.165,0.577l0.106,0.617l0.093,0.569l0.017,0.638l0.007,0.639l-0.067,0.603
		c-0.04,0.401-0.094,0.798-0.203,1.176c-0.363,1.532-0.99,2.938-1.796,4.127c-0.808,1.185-1.714,2.217-2.696,3.017
		c-0.98,0.797-1.986,1.42-2.958,1.815c-0.484,0.202-0.939,0.389-1.391,0.482c-0.443,0.115-0.85,0.232-1.234,0.255
		c-0.381,0.04-0.721,0.088-1.018,0.104c-0.299-0.01-0.553-0.019-0.759-0.025c-0.413-0.017-0.634-0.026-0.634-0.026l0.26-1.982
		c0,0,0.174,0.012,0.5,0.035c0.163,0.013,0.364,0.029,0.602,0.049c0.237-0.005,0.511-0.037,0.818-0.055
		c0.31,0.001,0.643-0.088,1.009-0.167c0.372-0.057,0.754-0.201,1.165-0.353c0.824-0.294,1.704-0.793,2.586-1.452
		c0.886-0.661,1.722-1.544,2.483-2.567c0.762-1.027,1.364-2.259,1.736-3.588c0.112-0.331,0.17-0.672,0.218-1.018l0.082-0.52
		l0.013-0.5l0.019-0.507l-0.07-0.572l-0.066-0.527l-0.134-0.546c-0.323-1.471-0.879-2.899-1.74-4.13
		c-0.387-0.652-0.948-1.16-1.459-1.713c-0.281-0.249-0.595-0.462-0.89-0.696c-0.295-0.235-0.595-0.464-0.931-0.624
		c-0.651-0.359-1.28-0.747-2.019-0.991c-0.354-0.139-0.707-0.277-1.057-0.414c-0.312-0.126-0.688-0.186-1.024-0.283
		c-1.401-0.294-2.825-0.25-4.146-0.068c-1.327,0.175-2.553,0.543-3.658,0.935c-1.112,0.386-2.078,0.874-2.922,1.325
		c-0.826,0.48-1.533,0.934-2.05,1.388c-0.537,0.434-0.879,0.854-1.086,1.159C74.779,54.522,74.716,54.712,74.716,54.712z"/>
</g>
<g>
	<path d="M84.417,64.008c-0.003,0.009,0.095,0.004,0.249,0.089c0.155,0.08,0.36,0.239,0.572,0.487c0.427,0.493,0.89,1.314,1.26,2.37
		c0.361,1.056,0.658,2.354,0.598,3.792c-0.029,0.716-0.162,1.471-0.47,2.196c-0.149,0.368-0.355,0.706-0.611,1.043
		c-0.223,0.286-0.451,0.573-0.742,0.863c-1.087,1.127-2.461,1.979-3.901,2.396c-0.713,0.234-1.441,0.318-2.131,0.369
		c-0.692,0.022-1.349-0.029-1.946-0.128c-0.296-0.064-0.58-0.125-0.85-0.184c-0.262-0.084-0.51-0.163-0.744-0.237
		c-0.465-0.155-0.845-0.348-1.172-0.48c-0.614-0.332-0.965-0.521-0.965-0.521l1.092-1.676c0,0,0.281,0.185,0.773,0.507
		c0.26,0.128,0.564,0.32,0.938,0.479c0.188,0.078,0.387,0.161,0.597,0.249c0.217,0.066,0.444,0.136,0.683,0.208
		c0.482,0.122,1.014,0.21,1.586,0.24c0.568,0.003,1.18-0.01,1.793-0.158c1.234-0.241,2.505-0.886,3.536-1.788
		c0.252-0.207,0.507-0.473,0.757-0.745c0.206-0.229,0.413-0.5,0.56-0.793c0.311-0.583,0.493-1.241,0.576-1.896
		c0.172-1.314,0.002-2.595-0.26-3.644c-0.27-1.053-0.651-1.895-1.023-2.409c-0.186-0.258-0.371-0.431-0.515-0.521
		C84.514,64.021,84.412,64.016,84.417,64.008z"/>
</g>
<g>
	<path d="M63.397,53.197c0,0,0.229-0.026,0.655-0.076c0.429-0.015,1.069,0.026,1.854,0.214c0.393,0.094,0.814,0.245,1.276,0.396
		c0.44,0.206,0.948,0.367,1.434,0.653c1.018,0.491,2.058,1.235,3.136,2.112c1.05,0.913,2.07,2.037,2.973,3.364
		c0.865,1.353,1.554,2.925,1.957,4.643c0.073,0.435,0.147,0.873,0.222,1.315c0.072,0.442,0.05,0.896,0.078,1.351l0.025,0.685
		l-0.072,0.696c-0.048,0.445-0.096,0.894-0.145,1.343c-0.409,1.832-1.017,3.684-2.115,5.237c-0.465,0.838-1.143,1.513-1.749,2.242
		c-0.307,0.362-0.694,0.642-1.037,0.965c-0.364,0.299-0.684,0.656-1.091,0.894c-0.783,0.513-1.532,1.079-2.386,1.438
		c-0.415,0.198-0.822,0.412-1.24,0.592c-0.432,0.143-0.86,0.285-1.286,0.426c-1.706,0.563-3.453,0.756-5.102,0.783
		c-1.647-0.026-3.208-0.227-4.597-0.621c-0.714-0.134-1.354-0.394-1.963-0.64c-0.602-0.257-1.212-0.43-1.717-0.724
		c-1.006-0.587-1.945-1.018-2.61-1.523c-1.345-0.998-2.113-1.567-2.113-1.567l1.313-1.51c0,0,0.689,0.548,1.895,1.507
		c0.597,0.492,1.439,0.9,2.342,1.478c0.454,0.288,1.001,0.455,1.543,0.711c0.548,0.244,1.124,0.506,1.767,0.645
		c1.252,0.404,2.664,0.632,4.166,0.709c1.502,0.024,3.107-0.093,4.691-0.559c0.396-0.116,0.796-0.232,1.198-0.35
		c0.39-0.153,0.77-0.34,1.16-0.509c0.803-0.301,1.507-0.805,2.253-1.254c0.389-0.205,0.69-0.528,1.038-0.795
		c0.328-0.289,0.702-0.535,0.997-0.862c0.581-0.66,1.243-1.267,1.697-2.033c1.087-1.425,1.689-3.12,2.139-4.779
		c0.063-0.447,0.126-0.894,0.189-1.337l0.09-0.634l-0.003-0.648c-0.014-0.431,0.024-0.863-0.03-1.286
		c-0.057-0.422-0.112-0.842-0.168-1.259c-0.329-1.648-0.937-3.182-1.729-4.52c-0.83-1.315-1.788-2.448-2.788-3.379
		c-1.026-0.895-2.028-1.665-3.015-2.183c-0.471-0.3-0.966-0.475-1.396-0.694c-0.45-0.165-0.864-0.33-1.249-0.435
		c-0.773-0.213-1.4-0.274-1.83-0.275C63.626,53.179,63.397,53.197,63.397,53.197z"/>
</g>
<g>
	<path d="M50.969,66.536c0,0,0.083,0.104,0.207,0.324c0.131,0.224,0.29,0.564,0.419,1.027c0.264,0.919,0.447,2.313,0.197,3.97
		c-0.117,0.827-0.343,1.722-0.738,2.621c-0.382,0.903-0.943,1.815-1.718,2.61c-0.752,0.815-1.744,1.474-2.831,1.908
		c-1.106,0.425-2.248,0.635-3.396,0.662c-1.155,0.033-2.315-0.107-3.417-0.418c-1.093-0.34-2.111-0.845-2.987-1.469
		c-0.887-0.613-1.603-1.37-2.21-2.115c-0.613-0.747-1.055-1.544-1.422-2.281c-0.718-1.492-1.027-2.827-1.167-3.757
		c-0.078-0.464-0.096-0.834-0.115-1.084c-0.014-0.25-0.022-0.383-0.022-0.383s0.157,0.514,0.502,1.367
		c0.34,0.853,0.896,2.042,1.757,3.304c0.863,1.253,2.062,2.581,3.626,3.513c1.544,0.954,3.455,1.432,5.375,1.344
		c0.961-0.063,1.932-0.188,2.776-0.502c0.843-0.334,1.624-0.784,2.27-1.376c1.303-1.183,2.096-2.776,2.552-4.207
		c0.447-1.443,0.577-2.738,0.555-3.642C51.169,67.046,50.968,66.536,50.969,66.536z"/>
</g>
<g>
	<path d="M40.815,62.605c0,0-0.323-1.125-0.722-3.106c-0.201-0.991-0.434-2.197-0.637-3.588c-0.224-1.389-0.405-2.963-0.582-4.687
		c-0.123-1.727-0.313-3.601-0.252-5.606c0.03-1.003,0.092-2.037,0.239-3.103c0.068-0.534,0.161-1.071,0.284-1.627
		c0.13-0.559,0.249-1.107,0.56-1.749c0.116-0.184,0.166-0.327,0.373-0.536c0.116-0.101,0.175-0.192,0.352-0.275
		c0.174-0.074,0.379-0.152,0.548-0.132c0.087,0.008,0.176,0.022,0.262,0.043l0.126,0.035l0.061,0.02
		c0.188,0.09,0.064,0.034,0.111,0.058l0.165,0.123l0.33,0.25l0.691,0.686l0.558,0.656c0.693,0.883,1.394,1.777,2.1,2.678
		c1.374,1.811,2.808,3.617,4.256,5.427c1.437,1.817,2.858,3.654,4.086,5.58c0.63,0.954,1.224,1.92,1.802,2.89
		c0.291,0.481,0.576,0.967,0.844,1.463c0.275,0.509,0.555,0.997,0.593,0.973c-0.001-0.001-0.059-0.087-0.292-0.17
		c-0.243-0.098-0.698-0.05-0.863,0.072c-0.326,0.212-0.185,0.16-0.149,0.035c0.131-0.257,0.265-0.714,0.381-1.146
		c0.229-0.895,0.404-1.856,0.561-2.79c0.309-1.88,0.559-3.704,0.746-5.39c0.405-3.375,0.684-6.217,0.832-8.204
		c0.07-0.993,0.109-1.774,0.101-2.3c0.002-0.531-0.066-0.781-0.065-0.781l0.271-0.126c0,0,0.181,0.275,0.355,0.81
		c0.177,0.534,0.37,1.325,0.542,2.336c0.345,2.023,0.627,4.925,0.636,8.421c-0.018,1.748-0.063,3.644-0.296,5.671
		c-0.123,1.016-0.274,2.057-0.563,3.168c-0.153,0.565-0.315,1.12-0.665,1.806c-0.21,0.337-0.357,0.759-1.144,1.251
		c-0.396,0.246-1.134,0.355-1.633,0.159c-0.486-0.17-0.764-0.42-0.953-0.612c-0.197-0.203-0.316-0.376-0.438-0.555
		c-0.107-0.174-0.235-0.394-0.276-0.487l-0.369-0.758c-0.228-0.478-0.46-0.962-0.708-1.447c-0.481-0.974-1.004-1.951-1.53-2.938
		c-1.075-1.959-2.089-4.011-3.175-6.028c-1.079-2.02-2.258-3.988-3.612-5.777c-0.67-0.896-1.375-1.763-2.161-2.504L41.91,40.25
		l-0.536-0.408l-0.361-0.185l-0.182-0.092c0.032,0.017-0.105-0.054,0.067,0.035l0.01,0.011l0.026,0.017
		c0.019,0.009,0.041,0.011,0.062,0.007c0.035-0.006,0.118,0.018,0.164-0.025c0.047-0.04,0.039,0.006,0.054-0.009
		c0.013-0.019-0.021,0.108-0.038,0.154c-0.173,0.785-0.124,1.894-0.085,2.867c0.055,1.011,0.108,2,0.161,2.963
		c0.112,1.937,0.102,3.788,0.167,5.497c0.017,1.712,0.052,3.285,0.03,4.685c-0.001,1.398-0.044,2.623-0.089,3.634
		c-0.083,2.021-0.246,3.184-0.246,3.184L40.815,62.605z"/>
</g>
</svg>
